HIERARCHY
ROOT hip
{
  OFFSET 0 0 0
  CHANNELS 6 Xposition Yposition Zposition Zrotation Yrotation Xrotation
  JOINT abdomen
  {
    OFFSET 0 20.6881 -0.73152
    CHANNELS 3 Zrotation Xrotation Yrotation
    JOINT chest
    {
      OFFSET 0 11.7043 -0.48768
      CHANNELS 3 Zrotation Xrotation Yrotation
      JOINT neck
      {
        OFFSET 0 22.1894 -2.19456
        CHANNELS 3 Zrotation Xrotation Yrotation
        JOINT head
        {
          OFFSET -0.24384 7.07133 1.2192
          CHANNELS 3 Zrotation Xrotation Yrotation
          JOINT leftEye
          {
            OFFSET 4.14528 8.04674 8.04672
            CHANNELS 3 Zrotation Xrotation Yrotation
            End Site
            {
              OFFSET 1 0 0
            }
          }
          JOINT rightEye
          {
            OFFSET -3.6576 8.04674 8.04672
            CHANNELS 3 Zrotation Xrotation Yrotation
            End Site
            {
              OFFSET 1 0 0
            }
          }
        }
      }
      JOINT rCollar
      {
        OFFSET -2.68224 19.2634 -4.8768
        CHANNELS 3 Zrotation Xrotation Yrotation
        JOINT rShldr
        {
          OFFSET -8.77824 -1.95073 1.46304
          CHANNELS 3 Zrotation Xrotation Yrotation
          JOINT rForeArm
          {
            OFFSET -28.1742 -1.7115 0.48768
            CHANNELS 3 Zrotation Xrotation Yrotation
            JOINT rHand
            {
              OFFSET -22.5879 0.773209 7.07136
              CHANNELS 3 Zrotation Xrotation Yrotation
              JOINT rThumb1
              {
                OFFSET -1.2192 -0.487915 3.41376
                CHANNELS 3 Zrotation Xrotation Yrotation
                JOINT rThumb2
                {
                  OFFSET -3.37035 -0.52449 3.41376
                  CHANNELS 3 Zrotation Xrotation Yrotation
                  End Site
                  {
                    OFFSET -1.78271 -1.18214 1.43049
                  }
                }
              }
              JOINT rIndex1
              {
                OFFSET -7.75947 0.938293 5.60832
                CHANNELS 3 Zrotation Xrotation Yrotation
                JOINT rIndex2
                {
                  OFFSET -2.54057 -0.884171 1.56538
                  CHANNELS 3 Zrotation Xrotation Yrotation
                  End Site
                  {
                    OFFSET -1.62519 -0.234802 1.16502
                  }
                }
              }
              JOINT rMid1
              {
                OFFSET -8.24714 1.18213 3.41376
                CHANNELS 3 Zrotation Xrotation Yrotation
                JOINT rMid2
                {
                  OFFSET -3.10165 -0.590103 1.0647
                  CHANNELS 3 Zrotation Xrotation Yrotation
                  End Site
                  {
                    OFFSET -2.48547 -0.328903 0.83742
                  }
                }
              }
              JOINT rRing1
              {
                OFFSET -8.82822 0.546677 1.51678
                CHANNELS 3 Zrotation Xrotation Yrotation
                JOINT rRing2
                {
                  OFFSET -2.60934 -0.819778 -0.0198488
                  CHANNELS 3 Zrotation Xrotation Yrotation
                  End Site
                  {
                    OFFSET -2.33842 -0.294052 0.168128
                  }
                }
              }
              JOINT rPinky1
              {
                OFFSET -8.27202 -0.0477905 -0.4584
                CHANNELS 3 Zrotation Xrotation Yrotation
                JOINT rPinky2
                {
                  OFFSET -1.82734 -0.647385 -0.700984
                  CHANNELS 3 Zrotation Xrotation Yrotation
                  End Site
                  {
                    OFFSET -1.69225 -0.51767 -0.607171
                  }
                }
              }
            }
          }
        }
      }
      JOINT lCollar
      {
        OFFSET 2.68224 19.2634 -4.8768
        CHANNELS 3 Zrotation Xrotation Yrotation
        JOINT lShldr
        {
          OFFSET 8.77824 -1.95073 1.46304
          CHANNELS 3 Zrotation Xrotation Yrotation
          JOINT lForeArm
          {
            OFFSET 28.1742 -1.7115 0.48768
            CHANNELS 3 Zrotation Xrotation Yrotation
            JOINT lHand
            {
              OFFSET 22.5879 0.773209 7.07136
              CHANNELS 3 Zrotation Xrotation Yrotation
              JOINT lThumb1
              {
                OFFSET 1.2192 -0.487915 3.41376
                CHANNELS 3 Zrotation Xrotation Yrotation
                JOINT lThumb2
                {
                  OFFSET 3.37035 -0.52449 3.41376
                  CHANNELS 3 Zrotation Xrotation Yrotation
                  End Site
                  {
                    OFFSET 1.78271 -1.18214 1.43049
                  }
                }
              }
              JOINT lIndex1
              {
                OFFSET 7.75947 0.938293 5.60832
                CHANNELS 3 Zrotation Xrotation Yrotation
                JOINT lIndex2
                {
                  OFFSET 2.54057 -0.884171 1.56538
                  CHANNELS 3 Zrotation Xrotation Yrotation
                  End Site
                  {
                    OFFSET 1.62519 -0.234802 1.16502
                  }
                }
              }
              JOINT lMid1
              {
                OFFSET 8.24714 1.18213 3.41376
                CHANNELS 3 Zrotation Xrotation Yrotation
                JOINT lMid2
                {
                  OFFSET 3.10165 -0.590103 1.0647
                  CHANNELS 3 Zrotation Xrotation Yrotation
                  End Site
                  {
                    OFFSET 2.48547 -0.328903 0.83742
                  }
                }
              }
              JOINT lRing1
              {
                OFFSET 8.82822 0.546677 1.51678
                CHANNELS 3 Zrotation Xrotation Yrotation
                JOINT lRing2
                {
                  OFFSET 2.60934 -0.819778 -0.0198488
                  CHANNELS 3 Zrotation Xrotation Yrotation
                  End Site
                  {
                    OFFSET 2.33842 -0.294052 0.168128
                  }
                }
              }
              JOINT lPinky1
              {
                OFFSET 8.27202 -0.0477905 -0.4584
                CHANNELS 3 Zrotation Xrotation Yrotation
                JOINT lPinky2
                {
                  OFFSET 1.82734 -0.647385 -0.700984
                  CHANNELS 3 Zrotation Xrotation Yrotation
                  End Site
                  {
                    OFFSET 1.69225 -0.51767 -0.607171
                  }
                }
              }
            }
          }
        }
      }
    }
  }
  JOINT rButtock
  {
    OFFSET -8.77824 4.35084 1.2192
    CHANNELS 3 Zrotation Xrotation Yrotation
    JOINT rThigh
    {
      OFFSET 0 -1.70687 -2.19456
      CHANNELS 3 Zrotation Xrotation Yrotation
      JOINT rShin
      {
        OFFSET 0 -36.8199 0.73152
        CHANNELS 3 Zrotation Xrotation Yrotation
        JOINT rFoot
        {
          OFFSET 0.73152 -45.1104 -5.12064
          CHANNELS 3 Zrotation Xrotation Yrotation
          End Site
          {
            OFFSET -1.1221 -3.69964 12.103
          }
        }
      }
    }
  }
  JOINT lButtock
  {
    OFFSET 8.77824 4.35084 1.2192
    CHANNELS 3 Zrotation Xrotation Yrotation
    JOINT lThigh
    {
      OFFSET 0 -1.70687 -2.19456
      CHANNELS 3 Zrotation Xrotation Yrotation
      JOINT lShin
      {
        OFFSET 0 -36.8199 0.73152
        CHANNELS 3 Zrotation Xrotation Yrotation
        JOINT lFoot
        {
          OFFSET -0.73152 -45.1104 -5.12064
          CHANNELS 3 Zrotation Xrotation Yrotation
          End Site
          {
            OFFSET 1.1221 -3.69964 12.103
          }
        }
      }
    }
  }
}
MOTION
Frames:	4
Frame Time:	0.03333
1.0290167294442654 35.598403215408325 0.19682846032083035 -3.703007975976746 2.1551940487244154 2.6749018620102163 -2.0966409714040117 9.181374216310212 2.4479395850891583 2.5271311462038133 -7.734794791614872 1.0667905978781898 -3.299338246500292 9.916637250272915 -1.7481352647591655 5.846684191326404 -13.789641377615286 -3.3937079820545963 -0.06138787263022343 0.22074813879766844 0.024406933947100095 0.03361029368857493 0.30441683555241394 0.16592880039530808 0.28767516144264 -0.12016549241959129 0.1424846296364889 22.67432754430578 13.591934721900097 7.410896975889113 -15.37123485918156 -15.40534823899119 29.651975375857226 -2.307179418135539 -3.5543967200156086 -3.6940198739158325 -0.2157846723443319 0.20138236470571377 0.20855739838753282 0.414763877679259 -0.09759533241048249 -0.17751768374568921 0.19945016822254064 -0.017075686368443442 -0.015827602699755836 5.119917912691197 4.896002967357023 0.48797400734998114 -0.18765864703330698 -0.05834083452803083 0.05697028770195901 1.918399287606301 1.0833783526078002 0.11875834004843643 -0.11915446433987073 -0.15753030907841048 0.5084264752110554 6.786047791841074 0.5239913557516037 -0.31987267319008006 0.09575199508758563 -0.0913091704759039 0.07163242934362192 2.1367119837171837 -0.7596743968605927 0.008748992079110318 -0.13695297682157193 0.5200182133670662 -0.26511163151950284 -25.926587004404464 15.668045852206342 -8.584117715848556 14.450757585495623 -15.184395034435862 -28.85751167726344 2.8510240527311073 -6.954822193118912 3.2042009684380073 -0.16654242352312498 -0.05314271372410734 -0.3663892763260552 0.2002476995298454 0.12491596902861449 -0.49318608201693553 0.2490259223743146 0.21371261706573216 -0.1154301436123626 -5.5433221931139345 3.999189310937417 -0.32599777873042124 0.13871335135843693 -0.14569433829871886 0.08124792830250488 -2.28832489437513 0.5092092789229623 -0.10877145622354063 -0.1762531916147377 0.3019080216929036 0.2622905766293025 -7.052130190676792 0.7990086558779027 0.11558718460242 0.007032073286818197 0.2800871681202996 0.41777919275440806 -1.6559733878540677 -0.6877927923442909 0.0611458278015111 -0.09791999317968288 0.18310974104607847 -0.05483710756637296 -13.889423611200002 -19.259250034772325 -14.432287046432615 -3.7894901237001553 29.541357047154285 3.5743035197950226 -3.793060605088779 -6.324307794041172 -5.868851997164504 0.29272317816738186 0.2216806463823603 0.11071192363891184 13.883967997600454 -16.10844620460501 15.264960530790747 1.8003904807779942 30.031925139006695 -4.056663645255782 3.928974539382863 -5.048058773093962 6.628753657897558
0.9617253206670284 64.39536809921265 0.22125020623207092 -4.18620714748836 2.5191061008158715 5.2396144165747325 -2.968127005720741 14.422748687256693 3.2346064093019655 3.4012297278780728 -10.339198856106801 1.0675186533550307 -5.611521205089688 16.332775230157615 -4.659548221593528 9.69011231890215 -25.563922742497006 -6.747111871590594 0.06157260790293112 -0.14025505312015574 -0.05344639033790845 -0.18893583904724648 0.20021242800608463 -0.005106340136951447 0.04342962443539385 0.1553643386987231 0.06345603256656214 46.25944715405441 27.257976996294833 13.11148299398212 -24.326982313996865 -26.85323535400551 55.637990148682675 -3.670147508992992 -7.362978076219596 -3.836153549222859 0.1300742292754286 -0.12404909529297822 -0.1853605285014357 -0.16233844208898213 -0.11722049360833897 0.06581933138023943 -0.15741899833928044 0.2650167826034896 0.0385798966399939 8.435508167434712 5.8735976979771936 0.1806427087343816 0.2158457171600389 0.10411769616038187 0.018622190606922422 3.145134986599618 0.9109444640387162 0.12674037658894838 -0.1082194382003861 0.08161094218472048 -0.3509651083545797 11.017317112378592 0.7990391782857562 0.14088137613096063 0.05867479342584743 0.23571153580443255 -0.1731910390509638 2.4113419374123493 -0.6116997892352944 -0.4725533611947964 0.19586367857804923 -0.3038307199442622 -0.09878780073024473 -55.070196522979515 30.59192551886687 -19.21294818238881 23.534997974071793 -25.826101261335236 -54.405421041251344 5.300650694545259 -9.29057442698673 3.834583459487402 0.2809721578654923 0.2251136968943644 -0.08141852294919653 -0.22123633724076566 -0.2618711870060078 0.23674748340245308 0.040477301847082287 -0.2755430379294048 0.07898606847017285 -7.944283523648333 5.982823948749922 -0.4898350738162509 -0.1731695746478885 0.056666344283893444 -0.11862496459663606 -3.352315541580438 1.2065740477804971 -0.1394717157997199 -0.1813819166294768 -0.3827445911804739 0.23232296156331286 -10.988451879172473 0.793602401067279 -0.17715845848402886 0.1790741931440852 0.11483970577512673 -0.3773793708657231 -2.243758550371032 -0.5610141293433935 -0.10828373802811941 0.23858699208415501 -0.2710849254333699 -0.1473079971705608 -26.648985377065447 -34.24083455463571 -25.55751602505553 -4.9490052353163225 57.925283897936545 5.68815976955864 -5.074279442430819 -9.09695905458438 -9.835278598200663 -0.006373313547562367 0.06598884546966005 -0.02772779326590145 27.654119430419108 -29.95155771813774 24.659810602062418 2.8140848955957973 57.499018622025226 -4.169021537762961 5.564001871486617 -9.340536406991728 14.10134986699351
0.5258440040051937 69.48687434196472 -0.33692498691380024 -16.6428419128141 -12.628570690415648 -0.659478243140003 1.805052084886528 16.129761517457325 5.477336589316088 1.573775583009255 -9.652582136960223 1.4704927707532014 -3.628110255972502 15.575773411614055 0.5203657526019435 7.684893429538759 -27.71560308578027 1.9443802599919717 0.05923401516414222 0.354893480983542 -0.14111101456137587 -0.17114959956171014 -0.4823915016422593 -0.07865290998514961 -0.003250342951706263 -0.42850397713350324 -0.2633014979873172 61.442967924276516 45.52523938431848 8.556583515756943 -28.236596255290504 -38.18589717772171 83.45498056250261 -8.556487039334916 -26.648681433647383 -11.199464597164493 0.2414663970669914 -0.014802567396151463 0.0008957419570501488 -0.17338115042960023 0.3723583280521175 0.06526165710667847 -0.057636231146035256 -0.5848252360071157 0.19940707933383137 8.224359699432938 5.427288805059642 0.36420148135753555 0.5132341813348039 0.21866989366013337 0.0367832367231632 2.9563372454396526 1.0052503800129633 -0.17610009932779422 0.26593154770459526 0.041583365605801226 -0.12261448876301109 10.93762075759559 0.6854516382845632 0.1921632901930626 0.24731111800581826 0.13811784424017645 0.07708507474572755 2.1788200999503124 -0.9149944460514164 -0.11405295336010589 0.160561525687721 0.07418823410420912 0.24340547710018745 -59.99794578271194 26.620488120300863 -41.36106770775305 23.99747349786794 -27.42192373448994 -63.03170407616733 3.9525916259854745 0.5056666518995472 -1.220684578275509 0.016006281515660428 -0.17988365060201106 -0.1424466900700836 0.29424908511664505 -0.0005382242426822939 0.13869286079092688 0.32546587774880653 -0.2291272067641138 -0.014986982503741806 -8.375253946124152 5.6024869992518775 -0.23144565578093645 -0.022277409029937058 0.15430048337464072 0.020565112621526594 -2.7505474877285767 1.0324797829128654 -0.07958941963380826 -0.11671379228950188 0.366778597108746 -0.16130633647236972 -11.248315817655717 0.5169067420350081 -0.15562900852906109 0.13557415906330203 0.09084119579605224 -0.3241171288311405 -2.5509755500397393 -0.805302888641481 0.40676439213985177 0.0015861513521767893 0.2181819086604477 0.1935802876415758 -24.460937691546448 -30.046374404195856 -21.418250633298555 -8.292958704361961 68.29385939766358 10.048409528609033 -7.404665282045122 -14.958986838994393 -20.109393435480058 -0.3474443592808497 -0.002864930851489782 -0.1591347632031288 54.069116186898256 -48.67585538428362 44.851171430224504 13.62565280451151 76.89136001541712 -14.181736070882684 2.8346096140516854 -6.971914314630046 9.698009725129978
0.9027793072164059 53.91684174537659 -0.9216220118105412 -24.365678750739573 -40.042796801710985 -3.1884808611763997 4.739242868829238 11.525908365903375 9.151435789630755 -1.3456282682672 -9.214966794195629 3.081923720265266 -0.15568286296984105 10.689505598258416 8.823596100980252 3.207002626658182 -22.701605612303517 14.889226701906468 0.1562225946566175 0.9429360028939981 0.03307204276546619 -0.05630146277182667 -0.12355150533977222 0.27386137065055366 -0.30312873124405826 0.1431122066273367 -0.49905134688412534 52.27728094494253 57.825631437946065 7.928235994193388 -24.54565423536941 -41.190326638881075 86.1163842631656 -16.005199357563804 -50.048682426321164 -22.480117945445635 0.7969847854494633 -0.4272489832343663 0.4173955549025502 0.11996128043557848 -0.4607441775632559 -0.06801513047669276 0.23273197250072025 0.25055417720110496 -0.2541135328519014 6.5438018994350555 5.06401921763699 0.8268339927828884 -1.022757115351058 -0.04821419862941423 -0.2501041317678246 2.2914061634644525 1.3792480601875896 0.05374996023000378 0.0931639403615326 -0.8851893147824791 0.9396344602039433 8.486136090883784 0.6680261181645683 0.0612422241822582 0.0004958290450606132 -0.11011577619041667 -0.04243491143644463 1.9805527283929478 -0.15022371421378936 0.2169426562129135 -0.29717149894691136 0.14131917524850257 -0.312432009182571 -48.396647496297255 9.385455146068317 -41.778303473581616 20.329532139976862 -21.677642434955423 -52.431913012657034 -0.4800627273004023 15.366897689058602 -5.341018393200503 0.5449891715292212 -0.107209157172606 -0.22927675055434005 0.9713662384273531 0.5436379146514694 0.09779411492771366 0.6655932901595742 -0.3332488516276096 -0.4846232125927081 -7.715636110992986 3.9262889943785786 -0.3073585126505738 -0.001659415803195754 -0.39180131529820506 0.13284573861371995 -2.907150491905452 0.09031345696096298 -0.6839683132959069 -0.23188977815954595 -0.42155735458248295 -0.0362528298454294 -8.581408692069001 0.6920476266712386 -0.08976437378471742 -0.03795746230134343 0.695466616598506 0.14737296400895528 -2.083498193337026 0.3202610601578452 0.30622091262779644 0.12046249892678106 0.04495422404376119 -0.44739764107950725 -10.244499990811867 -14.661421110066327 -8.790253678773187 -0.9899898164164507 57.03696656995761 3.212402531527312 -9.32606323614047 -19.536868196229374 -26.48060413855171 -0.34809995071946515 0.26445169117137685 0.5613418717018482 68.90540038500066 -52.17757725853327 59.85144505520434 18.845205674833448 70.27808399306564 -17.77992156055407 -0.4692114776999561 0.15425691423825544 1.163196583578804
